<svg width="16" height="16" viewBox="0 0 16 16" fill="none" xmlns="http://www.w3.org/2000/svg">
<path d="M6 11.9987C5.63333 11.9987 5.31944 11.8681 5.05833 11.607C4.79722 11.3459 4.66667 11.032 4.66667 10.6654V2.66536C4.66667 2.2987 4.79722 1.98481 5.05833 1.7237C5.31944 1.46259 5.63333 1.33203 6 1.33203H12C12.3667 1.33203 12.6806 1.46259 12.9417 1.7237C13.2028 1.98481 13.3333 2.2987 13.3333 2.66536V10.6654C13.3333 11.032 13.2028 11.3459 12.9417 11.607C12.6806 11.8681 12.3667 11.9987 12 11.9987H6ZM6 10.6654H12V2.66536H6V10.6654ZM3.33333 14.6654C2.96667 14.6654 2.65278 14.5348 2.39167 14.2737C2.13056 14.0126 2 13.6987 2 13.332V4.66536C2 4.47648 2.06389 4.31814 2.19167 4.19036C2.31944 4.06259 2.47778 3.9987 2.66667 3.9987C2.85556 3.9987 3.01389 4.06259 3.14167 4.19036C3.26944 4.31814 3.33333 4.47648 3.33333 4.66536V13.332H10C10.1889 13.332 10.3472 13.3959 10.475 13.5237C10.6028 13.6515 10.6667 13.8098 10.6667 13.9987C10.6667 14.1876 10.6028 14.3459 10.475 14.4737C10.3472 14.6015 10.1889 14.6654 10 14.6654H3.33333Z" fill="#5F6368"/>
</svg>
